<svg xmlns="http://www.w3.org/2000/svg" width="21" height="16.5" fill="none" stroke="currentColor" stroke-width="1.5" class="prefix__w-6 prefix__h-6" version="1.1" viewBox="0 0 21 16.5">
    <path stroke-linecap="round" stroke-linejoin="round" d="M1.875 15.75h17.25m-17.25 0A1.125 1.125 0 0 1 .75 14.625m1.125 1.125h3.381c.621 0 1.125-.504 1.125-1.125m-5.631 0V1.875m0 12.75v-1.5c0-.621.504-1.125 1.125-1.125m18.375 2.625V1.875m0 12.75c0 .621-.504 1.125-1.125 1.125m1.125-1.125v-1.5c0-.621-.504-1.125-1.125-1.125m0 3.75H7.506a1.125 1.125 0 0 1-1.125-1.125M20.25 1.875c0-.621-.504-1.125-1.125-1.125H1.875C1.254.75.75 1.254.75 1.875m19.5 0v1.5c0 .621-.504 1.125-1.125 1.125M.75 1.875v1.5c0 .621.504 1.125 1.125 1.125m0 0h17.25m-17.25 0h3.381c.748 0 1.125.504 1.125 1.125M1.875 4.5C1.254 4.5.75 5.004.75 5.625v1.5c0 .621.504 1.125 1.125 1.125m17.25-3.75H7.506c-.62 0-1.125.504-1.125 1.125M19.125 4.5c.621 0 1.125.504 1.125 1.125v1.5c0 .621-.504 1.125-1.125 1.125m-17.25 0h3.381m-3.381 0C1.254 8.25.75 8.754.75 9.375v1.5c0 .621.504 1.125 1.125 1.125m4.506-4.875v-1.5m0 1.5c0 .621-.504 1.125-1.125 1.125m1.125-1.125c0 .621.504 1.125 1.125 1.125m-2.25 0c.621 0 1.125.504 1.125 1.125M7.506 8.25h11.619m-11.619 0c-.62 0-1.125.504-1.125 1.125M19.125 8.25c.621 0 1.125.504 1.125 1.125v1.5c0 .621-.504 1.125-1.125 1.125m-17.25 0h3.381m1.125-1.125v-1.5m0 1.5c0 .621-.504 1.125-1.125 1.125m1.125-1.125c0 .621.504 1.125 1.125 1.125m-2.25 0c.621 0 1.125.504 1.125 1.125m0 1.5v-1.5m0 0c0-.621.504-1.125 1.125-1.125m0 0h11.619"/>
    <path fill="#000" stroke="#000" stroke-linecap="round" stroke-linejoin="round" stroke-width="0" d="M.737.877H7.042V15.369000000000002H.737z" opacity=".94"/>
</svg>
